# xmcd
# Track frame offsets:
# 150
# 21917
# 41993
# 65672
# 94796
# 111996
# 136089
# 157868
# 176906
# 204466
# 224237
#
# Disc length: 3277 seconds
# Revision: 0
# Processed by: cddbd v1.4PL0 Copyright (c) Steve Scherf et al.
# Submitted via: VisiTrax 2.9.5.181 - For more info visit www.synapsa.com
#
DISCID=a70ccb0b
DTITLE=Kenn lending blus band - Psychedelic mind
DYEAR=1900
DGENRE=Blues
TTITLE0=Down the alley
TTITLE1=Wish me well
TTITLE2=Psychedelic mind
TTITLE3=Black clouds
TTITLE4=Don't be cool
TTITLE5=Bricks in my pillow
TTITLE6=Get mellow
TTITLE7=Climax
TTITLE8=Play it cool
TTITLE9=Jealous man
TTITLE10=Gospel of the survivor
EXTD=
EXTT0=
EXTT1=
EXTT2=
EXTT3=
EXTT4=
EXTT5=
EXTT6=
EXTT7=
EXTT8=
EXTT9=
EXTT10=
PLAYORDER=
